<!DOCTYPE html PUBLIC "-//W3C//DTD XHTML 1.0 Transitional//EN"
  "http://www.w3.org/TR/xhtml1/DTD/xhtml1-transitional.dtd">


<html xmlns="http://www.w3.org/1999/xhtml">
  <head>
    <meta http-equiv="Content-Type" content="text/html; charset=utf-8" />
    
    <title>McErlean 2014 &mdash; Allergic Airway Diseases</title>
    
    <link rel="stylesheet" href="_static/haiku.css" type="text/css" />
    <link rel="stylesheet" href="_static/pygments.css" type="text/css" />
    
    <script type="text/javascript">
      var DOCUMENTATION_OPTIONS = {
        URL_ROOT:    './',
        VERSION:     '1.0',
        COLLAPSE_INDEX: false,
        FILE_SUFFIX: '.html',
        HAS_SOURCE:  true
      };
    </script>
    <script type="text/javascript" src="_static/jquery.js"></script>
    <script type="text/javascript" src="_static/underscore.js"></script>
    <script type="text/javascript" src="_static/doctools.js"></script>
    <link rel="top" title="Allergic Airway Diseases" href="index.html" />
    <link rel="next" title="Notes and things to keep in mind" href="notes.html" />
    <link rel="prev" title="Wagener 2013" href="GSE44037.html" /> 
  </head>
  <body>
      <div class="header"><h1 class="heading"><a href="index.html">
          <span>Allergic Airway Diseases</span></a></h1>
        <h2 class="heading"><span>McErlean 2014</span></h2>
      </div>
      <div class="topnav">
      
        <p>
        «&#160;&#160;<a href="GSE44037.html">Wagener 2013</a>
        &#160;&#160;::&#160;&#160;
        <a class="uplink" href="index.html">Contents</a>
        &#160;&#160;::&#160;&#160;
        <a href="notes.html">Notes and things to keep in mind</a>&#160;&#160;»
        </p>

      </div>
      <div class="content">
        
        
  <div class="section" id="mcerlean-2014">
<h1>McErlean 2014<a class="headerlink" href="#mcerlean-2014" title="Permalink to this headline">¶</a></h1>
<div class="section" id="basic-info">
<h2>Basic info<a class="headerlink" href="#basic-info" title="Permalink to this headline">¶</a></h2>
<blockquote>
<div><ul class="simple">
<li>GEO: <a class="reference external" href="http://www.ncbi.nlm.nih.gov/geo/query/acc.cgi?acc=GSE46171">GSE46171</a></li>
<li>reference: <a class="reference internal" href="references.html#mcerlean14" id="id1">[McErlean14]</a></li>
<li>platform: Agilent-014850 Whole Human Genome Microarray 4x44K G4112F</li>
<li>tissue: nasal mucosa</li>
<li>tissue environment: nasal ex-vivo</li>
</ul>
</div></blockquote>
<div class="section" id="samples">
<h3>Samples<a class="headerlink" href="#samples" title="Permalink to this headline">¶</a></h3>
<table border="1" class="docutils">
<colgroup>
<col width="30%" />
<col width="18%" />
<col width="30%" />
<col width="21%" />
</colgroup>
<thead valign="bottom">
<tr class="row-odd"><th class="head">asthma</th>
<th class="head">AR</th>
<th class="head">controls</th>
<th class="head">total</th>
</tr>
</thead>
<tbody valign="top">
<tr class="row-even"><td>34</td>
<td>7</td>
<td>9</td>
<td>50</td>
</tr>
</tbody>
</table>
<p>The following is a summary of the covariate information extracted from downloaded GSE files.</p>
<div class="highlight-python"><div class="highlight"><pre>Thu Dec 03 06:56:56 PM 2015
file: 1/2
total samples: 44 
-------------: 
covariate: group
	 Allergic Rhinitis - 5 
	 Asthmatic_exacerbation - 6 
	 Asthmatic_no exacerbation - 19 
	 healthy (no underlying respiratory disease) - 14 
covariate: gender
	 female - 34 
	 male - 10 
covariate: age
	 18 yrs - 3 
	 19 yrs - 5 
	 26 yrs - 5 
	 29 yrs - 3 
	 30 yrs - 2 
	 31 yrs - 5 
	 37 yrs - 3 
	 39 yrs - 3 
	 41 yrs - 6 
	 47 yrs - 3 
	 49 yrs - 3 
	 51 yrs - 3 
covariate: time point (visit)
	 time point (visit): Baseline (V3) - 14 
	 time point (visit): Day 2 (V1) - 16 
	 time point (visit): Day 6 (V2) - 14 
covariate: tissue
	 Nasal mucosa - 44 
file: 2/2
total samples: 47 
-------------: 
covariate: group
	 Allergic Rhinitis - 6 
	 Asthmatic_exacerbation - 11 
	 Asthmatic_no exacerbation - 27 
	 healthy (no underlying respiratory disease) - 3 
covariate: gender
	 female - 31 
	 male - 16 
covariate: age
	 20 yrs - 3 
	 24 yrs - 1 
	 25 yrs - 5 
	 26 yrs - 5 
	 27 yrs - 3 
	 28 yrs - 4 
	 29 yrs - 2 
	 30 yrs - 3 
	 32 yrs - 3 
	 33 yrs - 3 
	 36 yrs - 3 
	 43 yrs - 3 
	 46 yrs - 3 
	 51 yrs - 3 
	 53 yrs - 3 
covariate: time point (visit)
	 time point (visit): Baseline (V3) - 17 
	 time point (visit): Day 2 (V1) - 17 
	 time point (visit): Day 6 (V2) - 13 
covariate: tissue
	 Nasal mucosa - 47 
</pre></div>
</div>
</div>
</div>
</div>


      </div>
      <div class="bottomnav">
      
        <p>
        «&#160;&#160;<a href="GSE44037.html">Wagener 2013</a>
        &#160;&#160;::&#160;&#160;
        <a class="uplink" href="index.html">Contents</a>
        &#160;&#160;::&#160;&#160;
        <a href="notes.html">Notes and things to keep in mind</a>&#160;&#160;»
        </p>

      </div>

    <div class="footer">
        &copy; Copyright 2016.
      Last updated on Aug 10, 2016.
      Created using <a href="http://sphinx-doc.org/">Sphinx</a> 1.2.3.
    </div>
  </body>
</html>